<svg xmlns="http://www.w3.org/2000/svg" width="180" height="180" viewBox="0 0 180 180"><defs><radialGradient id="r"><stop stop-color="#fff"/><stop offset=".18" stop-color="#d8f8ff" stop-opacity=".95"/><stop offset=".48" stop-color="#a58bff" stop-opacity=".5"/><stop offset="1" stop-color="#7a5fe0" stop-opacity="0"/></radialGradient><filter id="g"><feGaussianBlur stdDeviation="3" result="b"/><feMerge><feMergeNode in="b"/><feMergeNode in="SourceGraphic"/></feMerge></filter></defs><circle cx="90" cy="90" r="54" fill="url(#r)" opacity=".75" filter="url(#g)"/><g fill="#f7fdff" opacity=".9"><path d="m90 4 8 62-8 16-8-16z"/><path d="m176 90-62 8-16-8 16-8z"/><path d="m90 176-8-62 8-16 8 16z"/><path d="m4 90 62-8 16 8-16 8z"/></g><g fill="#cab9ff" opacity=".8"><path d="m28 28 49 35 6 17-17-6z"/><path d="m152 28-35 49-17 6 6-17z"/><path d="m152 152-49-35-6-17 17 6z"/><path d="m28 152 35-49 17-6-6 17z"/></g><circle cx="90" cy="90" r="24" fill="none" stroke="#fff" stroke-width="3" opacity=".8"/><circle cx="90" cy="90" r="39" fill="none" stroke="#a98dff" stroke-width="2" opacity=".5"/></svg>