<svg xmlns="http://www.w3.org/2000/svg" width="96" height="112" viewBox="0 0 96 112"><defs><linearGradient id="cloak" x1="0" y1="0" x2="0" y2="1"><stop stop-color="#8a73f2"/><stop offset="1" stop-color="#3c316e"/></linearGradient><linearGradient id="steel"><stop stop-color="#f3fbff"/><stop offset="1" stop-color="#6488ad"/></linearGradient></defs><ellipse cx="48" cy="104" rx="24" ry="4" fill="#0c1021" opacity=".18"/><path d="M29 42 10 74l30 7 13-35z" fill="#2a3153"/><path d="M66 43 90 72 60 82 47 47z" fill="#25314d"/><path d="M30 39 48 27l19 12-6 39-13 12-14-16z" fill="url(#cloak)" stroke="#c7bbff" stroke-width="2"/><path d="M24 37 48 8l25 29-9 9H32z" fill="#302a5b" stroke="#a191ff" stroke-width="2"/><path d="M35 31c3-11 23-11 26 0l-4 9H39z" fill="#080c19"/><path d="M32 75 18 91l12 8 18-17zM58 77l20 12 8-10-24-13z" fill="#171c35" stroke="#6e73a3"/><g transform="rotate(-62 76 45)"><rect x="72" y="18" width="7" height="54" rx="3" fill="url(#steel)"/><path d="M69 20h13l-6-15z" fill="#e7f8ff"/><rect x="68" y="68" width="15" height="5" rx="2" fill="#b58c4f"/><rect x="73" y="72" width="5" height="12" rx="2" fill="#58402b"/></g><path d="M14 53c-10 4-13 11-15 20" fill="none" stroke="#78e3e3" stroke-width="5" stroke-linecap="round" opacity=".75"/></svg>