<svg xmlns="http://www.w3.org/2000/svg" width="96" height="112" viewBox="0 0 96 112"><defs><linearGradient id="cloak" x1="0" y1="0" x2="0" y2="1"><stop stop-color="#7d69e9"/><stop offset="1" stop-color="#39306b"/></linearGradient><linearGradient id="steel"><stop stop-color="#edf9ff"/><stop offset="1" stop-color="#6081a8"/></linearGradient></defs><ellipse cx="49" cy="103" rx="29" ry="5" fill="#0c1021" opacity=".3"/><path d="M29 45 12 86l30 2 10-39z" fill="#293152"/><path d="M64 44 88 82l-29 7-11-39z" fill="#25304b"/><path d="M31 42 49 31l18 12-7 39-12 13-14-15z" fill="url(#cloak)" stroke="#c2b6ff" stroke-width="2"/><path d="M25 41 48 12l24 29-8 8H32z" fill="#312b5d" stroke="#9b8cf2" stroke-width="2"/><path d="M35 35c3-11 23-11 26 0l-4 9H39z" fill="#090d1b"/><path d="M34 81 36 101h13l-7-21zM57 79l-12 19h14l9-19z" fill="#171c35" stroke="#6e73a3"/><g transform="rotate(-18 76 47)"><rect x="72" y="22" width="7" height="52" rx="3" fill="url(#steel)"/><path d="M69 23h13l-6-14z" fill="#e7f8ff"/><rect x="68" y="70" width="15" height="5" rx="2" fill="#b58c4f"/><rect x="73" y="74" width="5" height="12" rx="2" fill="#58402b"/></g><path d="M19 55c-8 8-11 17-11 28" fill="none" stroke="#67d9dc" stroke-width="4" stroke-linecap="round" opacity=".7"/></svg>