<svg xmlns="http://www.w3.org/2000/svg" width="76" height="62" viewBox="0 0 76 62"><defs><linearGradient id="body" x1="0" y1="0" x2="0" y2="1"><stop stop-color="#9bf0a2"/><stop offset=".55" stop-color="#4ebf78"/><stop offset="1" stop-color="#27624f"/></linearGradient><filter id="glow"><feGaussianBlur stdDeviation="2" result="b"/><feMerge><feMergeNode in="b"/><feMergeNode in="SourceGraphic"/></feMerge></filter></defs><ellipse cx="38" cy="55" rx="28" ry="5" fill="#0a1917" opacity=".28"/><path d="M10 45c0-20 12-34 28-34s28 14 28 34c0 8-11 12-28 12S10 53 10 45Z" fill="url(#body)" stroke="#b8f5ba" stroke-width="2"/><path d="M20 27c5-9 13-13 24-13-7 3-11 9-13 17z" fill="#d8ffd1" opacity=".42"/><path d="M36 15c1-9 9-13 16-10-7 2-9 7-8 12z" fill="#6fd77f"/><path d="M40 37 51 45 39 52 27 45z" fill="#d9ffaf" opacity=".48" filter="url(#glow)"/><path d="M39 39v10M31 45h17" stroke="#efffd2" stroke-width="2" opacity=".75"/></svg>